PathFileType	4	(X/Y/Z)	C:/Users/opensim2020/Desktop/walking_exp_matlab/subject01_walking15_straight_01.trc	
DataRate	CameraRate	NumFrames	NumMarkers	Units	OrigDataRate	OrigDataStartFrame	OrigNumFrames	
100.00	100.00	5	43	mm	100.00	668	125	
Frame#	Time	LFHD			RFHD			LBHD			RBHD			C7			T10			CLAV			STRN			RBAK			LSHO			LUPA			LELB			LFRM			LWRA			LWRB			LFIN			RSHO			RUPA			RELB			RFRM			RWRA			RWRB			RFIN			LASI			RASI			LPSI			RPSI			LTHI			LKNE			LTIB			LANK			LHEE			LTOE			RTHI			RKNE			RTIB			RANK			RHEE			RTOE			*39			*40			*41			*42			
		X1	Y1	Z1	X2	Y2	Z2	X3	Y3	Z3	X4	Y4	Z4	X5	Y5	Z5	X6	Y6	Z6	X7	Y7	Z7	X8	Y8	Z8	X9	Y9	Z9	X10	Y10	Z10	X11	Y11	Z11	X12	Y12	Z12	X13	Y13	Z13	X14	Y14	Z14	X15	Y15	Z15	X16	Y16	Z16	X17	Y17	Z17	X18	Y18	Z18	X19	Y19	Z19	X20	Y20	Z20	X21	Y21	Z21	X22	Y22	Z22	X23	Y23	Z23	X24	Y24	Z24	X25	Y25	Z25	X26	Y26	Z26	X27	Y27	Z27	X28	Y28	Z28	X29	Y29	Z29	X30	Y30	Z30	X31	Y31	Z31	X32	Y32	Z32	X33	Y33	Z33	X34	Y34	Z34	X35	Y35	Z35	X36	Y36	Z36	X37	Y37	Z37	X38	Y38	Z38	X39	Y39	Z39	X40	Y40	Z40	X41	Y41	Z41	X42	Y42	Z42	X43	Y43	Z43	

1	0.000	1326.68958	-904.66876	1653.92859	1438.65674	-886.27667	1665.07996	1342.04578	-1017.78961	1605.19690	1460.90637	-1001.32227	1615.50586	1373.57898	-1042.84705	1422.57886	1377.60498	-1108.57910	1133.97998	1398.11194	-903.04767	1345.23206	1399.28259	-877.36884	1186.51941	1440.55273	-1126.87488	1239.12708	1231.61255	-938.10754	1384.37036	1141.43896	-959.42773	1204.11475	1137.21765	-975.84406	1050.27283	1128.56091	-914.89063	948.63379	1168.82507	-819.25525	856.06201	1138.19177	-866.23224	836.01904	1137.68298	-801.61859	784.11932	1534.09375	-990.00488	1389.69189	1619.20044	-1101.88269	1208.42578	1623.41125	-1118.43225	1083.72168	1655.89246	-1113.78394	962.96350	1644.05444	-1051.88416	834.01849	1679.24426	-1097.86292	842.81018	1683.68201	-1073.76855	759.73322	1291.12610	-935.08429	921.70093	1504.88660	-955.14453	923.30902	1326.98206	-1122.59448	936.13715	1472.36340	-1133.05884	935.78833	1263.67493	-965.35333	579.89368	1292.86084	-980.93237	446.48969	1295.00317	-1053.21045	268.49731	1364.96094	-1114.30103	64.21416	1415.97021	-1167.11572	39.16350	1373.40601	-970.71588	28.99515	1592.94861	-918.83765	608.76398	1586.30920	-869.16119	458.00055	1586.86670	-995.79553	334.92450	1540.31946	-1117.06653	168.05717	1482.28809	-1170.95935	154.37163	1564.34924	-1028.43201	59.97588	1415.28687	-900.38501	1696.96204	-3101.80078	1973.18921	1023.53448	-3140.62915	2012.58118	1022.14221			 
2	0.010	1328.06042	-893.36615	1654.31921	1440.09167	-874.62598	1665.21216	1343.52197	-1006.51215	1605.88220	1462.40393	-989.85162	1615.91309	1374.79456	-1031.84448	1422.93091	1379.11780	-1097.54163	1134.39075	1399.19775	-891.97607	1345.75366	1400.33899	-866.18170	1187.05029	1441.79016	-1115.62537	1239.36951	1232.67407	-927.52972	1384.87659	1142.36194	-948.48907	1204.66785	1138.06396	-962.84174	1050.65955	1130.69067	-897.79712	950.87054	1172.19006	-798.22174	863.10413	1142.11707	-844.63544	840.60455	1141.84656	-777.42731	791.86340	1535.26379	-979.01508	1390.05420	1620.08521	-1091.64575	1209.04541	1624.20825	-1108.58667	1084.45764	1657.09363	-1105.89172	964.01733	1646.01282	-1045.97351	834.00885	1680.78003	-1092.03137	843.66571	1685.41223	-1069.61963	760.04761	1292.04333	-925.16431	921.44452	1506.09351	-943.47314	924.29315	1329.48865	-1112.12683	936.55157	1475.19470	-1121.61902	936.36145	1264.92676	-960.34564	579.88995	1292.93555	-978.63336	446.52264	1295.40735	-1052.44666	269.20721	1365.49426	-1114.01245	64.98785	1416.83081	-1166.59521	40.12788	1373.12842	-970.59186	29.03575	1593.57507	-901.43396	611.74921	1586.09827	-849.45068	461.59390	1588.52490	-970.37738	332.36963	1544.40527	-1082.19312	158.37250	1486.88452	-1136.04871	140.70749	1568.26965	-986.35956	56.72594	1416.71448	-888.79871	1697.21252	-3101.96655	1973.15979	1023.39667	-3140.62622	2012.58044	1022.14423			 
3	0.020	1329.44275	-882.00696	1654.56140	1441.41589	-863.20050	1665.30273	1345.04871	-995.25244	1606.30811	1463.89417	-978.32880	1616.12537	1376.01563	-1020.75616	1423.12280	1380.59656	-1086.38574	1134.57959	1400.36694	-880.85040	1346.04004	1401.39685	-855.18384	1187.33130	1443.02246	-1104.40076	1239.49707	1233.81677	-916.71906	1385.28491	1143.34680	-937.36835	1205.01367	1138.77942	-949.64539	1050.46619	1132.76611	-880.76306	953.16431	1175.45313	-777.54034	870.47626	1145.84106	-822.76630	845.62616	1145.88989	-753.53119	799.94861	1536.46265	-967.92688	1390.25806	1620.96411	-1081.24768	1209.42310	1625.18970	-1098.68616	1085.20642	1658.40247	-1097.74170	964.93829	1648.10815	-1039.78748	833.92230	1682.42529	-1086.01306	844.48322	1687.26331	-1065.23669	760.31287	1293.36304	-914.78699	921.38135	1507.38635	-931.71710	925.11084	1332.08044	-1101.71265	936.85156	1477.89795	-1109.90906	936.61157	1266.30591	-955.04669	579.78815	1293.69519	-976.39233	446.54092	1295.86694	-1051.59778	270.06006	1366.09009	-1113.71838	65.67334	1417.74902	-1166.09412	41.34835	1373.32507	-970.24359	28.83709	1594.34705	-884.85608	614.41864	1585.98743	-830.74927	464.70496	1590.24048	-945.07361	329.11270	1547.98035	-1046.62024	147.86423	1491.20410	-1099.95520	126.75472	1571.53381	-944.03992	53.50688	1418.16040	-877.24554	1697.34058	-3102.03345	1973.06775	1023.96918	-3140.74658	2012.52747	1022.09998			 
4	0.030	1330.81750	-870.76190	1654.71509	1442.75232	-851.71027	1665.28674	1346.59045	-983.94928	1606.50952	1465.36938	-966.82611	1616.17798	1377.23926	-1009.67297	1423.24780	1382.15015	-1075.27563	1134.71375	1401.53113	-869.58789	1346.16528	1402.54834	-843.89221	1187.42798	1444.24097	-1093.06287	1239.47156	1234.95056	-905.77478	1385.40686	1144.44312	-926.04736	1205.17078	1139.46021	-936.45117	1050.46594	1134.77576	-863.68518	955.49792	1178.60095	-757.24719	877.93219	1149.06995	-801.07220	850.72162	1149.79504	-730.02740	808.17645	1537.65552	-956.71899	1390.27441	1621.84973	-1070.72668	1209.63867	1626.16760	-1088.59644	1085.65979	1659.71863	-1089.44885	965.66541	1650.23889	-1033.36279	833.77527	1684.04285	-1079.69958	845.15149	1689.24377	-1060.41052	760.47394	1294.30371	-904.85022	920.83307	1508.76709	-919.93158	925.69128	1334.71362	-1091.24915	936.86780	1480.59827	-1098.29407	936.42664	1267.60925	-949.69757	579.76544	1294.04102	-973.75464	446.74658	1296.40271	-1050.58679	270.94174	1366.77930	-1113.39404	66.50858	1418.58215	-1165.80017	43.14508	1373.38086	-970.06763	28.70277	1595.05396	-869.00684	616.24542	1585.97852	-812.98724	467.33029	1591.96362	-919.66565	325.08838	1551.35901	-1010.49207	137.63777	1495.30042	-1062.18005	112.04304	1574.66248	-901.25623	51.00159	1419.55151	-865.78137	1697.31116	-3102.04370	1973.16187	1023.51099	-3140.71704	2012.46643	1021.99951			 
5	0.040	1332.22485	-859.44299	1654.58960	1444.11426	-840.22516	1665.10791	1348.11682	-972.67053	1606.47742	1466.91382	-955.30902	1616.04712	1378.50610	-998.39490	1423.17920	1383.76318	-1064.00867	1134.70630	1402.79163	-858.21570	1346.15173	1403.77576	-832.53064	1187.25928	1445.48743	-1081.70813	1239.34705	1236.18457	-894.62573	1385.39392	1145.50586	-914.54742	1205.17273	1140.20508	-922.98785	1050.25854	1136.66992	-846.68024	957.93719	1181.67053	-737.29492	885.39911	1152.15149	-779.88794	856.06696	1153.21033	-707.17072	816.63354	1538.88684	-945.42236	1390.12244	1622.83142	-1060.05933	1209.67712	1627.22632	-1078.38574	1085.97632	1661.10938	-1080.97437	966.34125	1652.46436	-1026.68713	833.56268	1685.81946	-1073.09521	845.66675	1691.27588	-1055.26050	760.76703	1295.54395	-894.44550	920.29315	1510.15979	-907.99292	926.02661	1337.36353	-1080.75134	936.67163	1483.19995	-1086.57263	936.15668	1268.80286	-944.35535	579.79486	1294.54565	-971.09229	447.10452	1296.96301	-1049.63940	271.94894	1367.37756	-1112.88489	67.49445	1419.83130	-1165.29456	44.77645	1373.45056	-969.94025	28.51369	1595.54333	-854.11157	617.52325	1586.01111	-796.20703	469.39517	1593.74524	-894.12622	320.54645	1554.52051	-973.32556	127.41136	1499.02637	-1024.15417	98.43343	1577.22461	-857.91302	49.14376	1421.13257	-854.17084	1697.40857	-3102.00171	1973.17297	1023.95660	-3140.57617	2012.56299	1022.08789			 
